{"title":"Battlestar.Galactica.Razor.Extended.2007.720p.BluRay","uid":11686637,"size":2770429777,"categoryP":"video","categoryS":"hd___tv_shows","magnet":"?xt=urn:btih:88e7413a1aea283692100b4a9c4423728252d745&amp;dn=Battlestar.Galactica.Razor.Extended.2007.720p.BluRay&amp;tr=udp%3A%2F%2Ftracker.openbittorrent.com%3A80&amp;tr=udp%3A%2F%2Fopen.demonii.com%3A1337&amp;tr=udp%3A%2F%2Ftracker.coppersurfer.tk%3A6969&amp;tr=udp%3A%2F%2Fexodus.desync.com%3A6969","seeders":4,"leechers":0,"uploader":"o2286055","files":3,"time":1423341753,"description":"Battlestar Galactica: Razor\nTV Movie, 104 min, Action | Drama | Sci-Fi, 24 November 2007 (USA)\n\n&quot;A two-hour Battlestar Galactica special that tells the story of the Battlestar Pegasus several months prior to it finding the Galactica.&quot;\niMDB: tt0991178\nAudio: English\nSubtitles: English, French, Spanish\nChapters\n\nGeneral\nFormat                                   : MPEG-4\nFormat profile                           : Base Media / Version 2\nCodec ID                                 : mp42\nFile size                                : 2.58 GiB\nDuration                                 : 1h 43mn\nOverall bit rate mode                    : Variable\nOverall bit rate                         : 3 562 Kbps\nWriting application                      : HandBrake 0.10.0 2014112200\n\nVideo\nID                                       : 1\nFormat                                   : AVC\nFormat/Info                              : Advanced Video Codec\nFormat profile                           : &lt;a class=&quot;__cf_email__&quot; href=&quot;/cdn-cgi/l/email-protection&quot; data-cfemail=&quot;0941606e6149453a2738&quot;&gt;[email&amp;#160;protected]&lt;/a&gt;&lt;script cf-hash='f9e31' type=&quot;text/javascript&quot;&gt;\n/* &lt;![CDATA[ */!function(){try{var t=&quot;currentScript&quot;in document?document.currentScript:function(){for(var t=document.getElementsByTagName(&quot;script&quot;),e=t.length;e--;)if(t[e].getAttribute(&quot;cf-hash&quot;))return t[e]}();if(t&amp;&amp;t.previousSibling){var e,r,n,i,c=t.previousSibling,a=c.getAttribute(&quot;data-cfemail&quot;);if(a){for(e=&quot;&quot;,r=parseInt(a.substr(0,2),16),n=2;a.length-n;n+=2)i=parseInt(a.substr(n,2),16)^r,e+=String.fromCharCode(i);e=document.createTextNode(e),c.parentNode.replaceChild(e,c)}}}catch(u){}}();/* ]]&gt; */&lt;/script&gt;\nFormat settings, CABAC                   : Yes\nFormat settings, ReFrames                : 4 frames\nCodec ID                                 : avc1\nCodec ID/Info                            : Advanced Video Coding\nDuration                                 : 1h 43mn\nBit rate                                 : 3 394 Kbps\nWidth                                    : 1 280 pixels\nHeight                                   : 720 pixels\nDisplay aspect ratio                     : 16:9\nFrame rate mode                          : Variable\nFrame rate                               : 23.976 fps\nMinimum frame rate                       : 23.810 fps\nMaximum frame rate                       : 24.390 fps\nColor space                              : YUV\nChroma subsampling                       : 4:2:0\nBit depth                                : 8 bits\nScan type                                : Progressive\nBits/(Pixel*Frame)                       : 0.154\nStream size                              : 2.46 GiB (95%)\nWriting library                          : x264 core 142 r2479 dd79a61\nEncoding settings                        : cabac=1 / ref=3 / deblock=1:-1:-1 / analyse=0x3:0x113 / me=hex / subme=7 / psy=1 / psy_rd=1.00:0.15 / mixed_ref=1 / me_range=16 / chroma_me=1 / trellis=1 / 8x8dct=1 / cqm=0 / deadzone=21,11 / fast_pskip=1 / chroma_qp_offset=-3 / threads=6 / lookahead_threads=1 / sliced_threads=0 / nr=0 / decimate=1 / interlaced=0 / bluray_compat=0 / constrained_intra=0 / bframes=3 / b_pyramid=2 / b_adapt=1 / b_bias=0 / direct=1 / weightb=1 / open_gop=0 / weightp=2 / keyint=240 / keyint_min=24 / scenecut=40 / intra_refresh=0 / rc_lookahead=40 / rc=crf / mbtree=1 / crf=23.0 / qcomp=0.60 / qpmin=0 / qpmax=69 / qpstep=4 / ip_ratio=1.40 / aq=1:1.00\nColor primaries                          : BT.709\nTransfer characteristics                 : BT.709\nMatrix coefficients                      : BT.709\nColor range                              : Limited\n\nAudio\nID                                       : 2\nFormat                                   : AAC\nFormat/Info                              : Advanced Audio Codec\nFormat profile                           : LC\nCodec ID                                 : 40\nDuration                                 : 1h 43mn\nBit rate mode                            : Variable\nBit rate                                 : 160 Kbps\nChannel(s)                               : 2 channels\nChannel positions                        : Front: L R\nSampling rate                            : 48.0 KHz\nCompression mode                         : Lossy\nStream size                              : 119 MiB (5%)\nTitle                                    : Stereo / Stereo\nLanguage                                 : English\n\nText #1\nID                                       : 3\nFormat                                   : Timed Text\nMuxing mode                              : sbtl\nCodec ID                                 : tx3g\nDuration                                 : 1h 39mn\nBit rate mode                            : Variable\nBit rate                                 : 69 bps\nStream size                              : 50.0 KiB (0%)\nLanguage                                 : English\n\nText #2\nID                                       : 4\nFormat                                   : Timed Text\nMuxing mode                              : sbtl\nCodec ID                                 : tx3g\nDuration                                 : 1h 43mn\nBit rate mode                            : Variable\nBit rate                                 : 64 bps\nStream size                              : 48.8 KiB (0%)\nLanguage                                 : French\n\nText #3\nID                                       : 5\nFormat                                   : Timed Text\nMuxing mode                              : sbtl\nCodec ID                                 : tx3g\nDuration                                 : 1h 39mn\nBit rate mode                            : Variable\nBit rate                                 : 65 bps\nStream size                              : 47.2 KiB (0%)\nLanguage                                 : Spanish\n\nMenu\nID                                       : 6\nCodec ID                                 : text\nDuration                                 : 1h 43mn\nLanguage                                 : English\nBit rate mode                            : CBR\n00:00:00.000                             : 00:00:00.000\n00:03:21.660                             : 00:03:21.368\n00:09:27.234                             : 00:09:27.150\n00:14:43.634                             : 00:14:43.424\n00:19:03.686                             : 00:19:03.476\n00:25:47.840                             : 00:25:47.713\n00:29:13.087                             : 00:29:12.793\n00:35:08.985                             : 00:35:08.815\n00:42:10.365                             : 00:42:10.278\n00:48:21.361                             : 00:48:21.273\n00:55:05.307                             : 00:55:05.052\n00:58:55.078                             : 00:58:54.990\n01:04:25.951                             : 01:04:25.820\n01:09:47.523                             : 01:09:47.225\n01:15:27.989                             : 01:15:27.857\n01:19:32.567                             : 01:19:32.309\n01:24:55.431                             : 01:24:55.215\n01:29:49.809                             : 01:29:49.718\n01:35:14.926                             : 01:35:14.834\n01:39:57.334                             : 01:39:57.241","torrent":{"xt":"urn:btih:88e7413a1aea283692100b4a9c4423728252d745","amp;dn":"Battlestar.Galactica.Razor.Extended.2007.720p.BluRay","amp;tr":["udp%3A%2F%2Ftracker.openbittorrent.com%3A80","udp%3A%2F%2Fopen.demonii.com%3A1337","udp%3A%2F%2Ftracker.coppersurfer.tk%3A6969","udp%3A%2F%2Fexodus.desync.com%3A6969"],"infoHash":"88e7413a1aea283692100b4a9c4423728252d745","infoHashBuffer":{"type":"Buffer","data":[136,231,65,58,26,234,40,54,146,16,11,74,156,68,35,114,130,82,215,69]},"announce":[],"urlList":[]}}